TITLE ""
FILE "DISC1Track13.mp3" MP3
  TRACK 01 AUDIO
    TITLE "DISC1Track13_01"
    INDEX 01 00:00:00
  TRACK 02 AUDIO
    TITLE "DISC1Track13_02"
    INDEX 01 00:01:35
  TRACK 03 AUDIO
    TITLE "DISC1Track13_03"
    INDEX 01 00:01:51
  TRACK 04 AUDIO
    TITLE "DISC1Track13_04"
    INDEX 01 00:05:11
  TRACK 05 AUDIO
    TITLE "DISC1Track13_05"
    INDEX 01 00:07:46
  TRACK 06 AUDIO
    TITLE "DISC1Track13_06"
    INDEX 01 00:09:52
  TRACK 07 AUDIO
    TITLE "DISC1Track13_07"
    INDEX 01 00:09:68
  TRACK 08 AUDIO
    TITLE "DISC1Track13_08"
    INDEX 01 00:12:43
  TRACK 09 AUDIO
    TITLE "DISC1Track13_09"
    INDEX 01 00:15:18
  TRACK 10 AUDIO
    TITLE "DISC1Track13_10"
    INDEX 01 00:17:34
  TRACK 11 AUDIO
    TITLE "DISC1Track13_11"
    INDEX 01 00:17:52
  TRACK 12 AUDIO
    TITLE "DISC1Track13_12"
    INDEX 01 00:22:14
  TRACK 13 AUDIO
    TITLE "DISC1Track13_13"
    INDEX 01 00:27:25
  TRACK 14 AUDIO
    TITLE "DISC1Track13_14"
    INDEX 01 00:32:10
  TRACK 15 AUDIO
    TITLE "DISC1Track13_15"
    INDEX 01 00:32:24
  TRACK 16 AUDIO
    TITLE "DISC1Track13_16"
    INDEX 01 00:36:22
  TRACK 17 AUDIO
    TITLE "DISC1Track13_17"
    INDEX 01 00:39:44
  TRACK 18 AUDIO
    TITLE "DISC1Track13_18"
    INDEX 01 00:42:42
  TRACK 19 AUDIO
    TITLE "DISC1Track13_19"
    INDEX 01 00:42:58
  TRACK 20 AUDIO
    TITLE "DISC1Track13_20"
    INDEX 01 00:44:23
  TRACK 21 AUDIO
    TITLE "DISC1Track13_21"
    INDEX 01 00:46:52
  TRACK 22 AUDIO
    TITLE "DISC1Track13_22"
    INDEX 01 00:48:50
  TRACK 23 AUDIO
    TITLE "DISC1Track13_23"
    INDEX 01 00:48:66
  TRACK 24 AUDIO
    TITLE "DISC1Track13_24"
    INDEX 01 00:52:31
  TRACK 25 AUDIO
    TITLE "DISC1Track13_25"
    INDEX 01 00:56:07
  TRACK 26 AUDIO
    TITLE "DISC1Track13_26"
    INDEX 01 00:59:33
  TRACK 27 AUDIO
    TITLE "DISC1Track13_27"
    INDEX 01 00:59:48
  TRACK 28 AUDIO
    TITLE "DISC1Track13_28"
    INDEX 01 01:04:14
  TRACK 29 AUDIO
    TITLE "DISC1Track13_29"
    INDEX 01 01:09:49
  TRACK 30 AUDIO
    TITLE "DISC1Track13_30"
    INDEX 01 01:14:48
  TRACK 31 AUDIO
    TITLE "DISC1Track13_31"
    INDEX 01 01:14:66
  TRACK 32 AUDIO
    TITLE "DISC1Track13_32"
    INDEX 01 01:18:03
  TRACK 33 AUDIO
    TITLE "DISC1Track13_33"
    INDEX 01 01:21:22
  TRACK 34 AUDIO
    TITLE "DISC1Track13_34"
    INDEX 01 01:24:15
  TRACK 35 AUDIO
    TITLE "DISC1Track13_35"
    INDEX 01 01:24:33
  TRACK 36 AUDIO
    TITLE "DISC1Track13_36"
    INDEX 01 01:27:47
  TRACK 37 AUDIO
    TITLE "DISC1Track13_37"
    INDEX 01 01:30:59
  TRACK 38 AUDIO
    TITLE "DISC1Track13_38"
    INDEX 01 01:33:37
  TRACK 39 AUDIO
    TITLE "DISC1Track13_39"
    INDEX 01 01:33:53
  TRACK 40 AUDIO
    TITLE "DISC1Track13_40"
    INDEX 01 01:35:15
  TRACK 41 AUDIO
    TITLE "DISC1Track13_41"
    INDEX 01 01:37:37
  TRACK 42 AUDIO
    TITLE "DISC1Track13_42"
    INDEX 01 01:39:24
  TRACK 43 AUDIO
    TITLE "DISC1Track13_43"
    INDEX 01 01:39:42
  TRACK 44 AUDIO
    TITLE "DISC1Track13_44"
    INDEX 01 01:42:62
  TRACK 45 AUDIO
    TITLE "DISC1Track13_45"
    INDEX 01 01:46:18
  TRACK 46 AUDIO
    TITLE "DISC1Track13_46"
    INDEX 01 01:49:13
  TRACK 47 AUDIO
    TITLE "DISC1Track13_47"
    INDEX 01 01:49:29
  TRACK 48 AUDIO
    TITLE "DISC1Track13_48"
    INDEX 01 01:52:33
  TRACK 49 AUDIO
    TITLE "DISC1Track13_49"
    INDEX 01 01:55:59
  TRACK 50 AUDIO
    TITLE "DISC1Track13_50"
    INDEX 01 01:58:51
